#!OML:ASF F:\VICON\USERDATA\INSTALL\rory3\rory3.ASF
:FULLY-SPECIFIED
:DEGREES
454
root 1.69304 27.1524 -1.31686 -161.658 -10.5806 177.064
lowerback 10.8643 -1.30704 -4.8015
upperback 0.595487 -2.40115 0.172661
thorax -5.27015 -1.10154 3.25151
lowerneck -19.0778 0.00846506 -9.27704
upperneck 36.8643 -1.29608 4.0793
head 16.5435 -2.22424 2.91261
rclavicle 1.54058e-015 -1.92821e-014
rhumerus -11.8036 -0.81263 -79.6139
rradius 96.9369
rwrist -22.6191
rhand -13.6704 12.6763
rfingers 7.12502
rthumb 12.4469 -16.9331
lclavicle 1.54058e-015 -1.92821e-014
lhumerus -8.15605 -9.99958 88.3164
lradius 60.4031
lwrist 14.819
lhand -24.7019 12.5769
lfingers 7.12502
lthumb 1.79949 42.549
rfemur -33.7596 -7.53403 18.9303
rtibia 46.9786
rfoot -9.76322 -4.61186
rtoes -4.86972
lfemur -45.2523 11.3646 -35.3229
ltibia 49.0473
lfoot -20.105 -3.2965
ltoes -13.0526
455
root 1.66889 27.2253 -1.33005 -161.764 -9.80393 177.507
lowerback 10.8286 -1.25596 -4.7045
upperback 0.448197 -2.30683 0.299204
thorax -5.41197 -1.04526 3.31799
lowerneck -18.7854 0.196686 -9.41241
upperneck 36.9187 -1.06466 4.08578
head 16.4755 -2.17459 2.97685
rclavicle -1.10822e-014 -1.35174e-014
rhumerus -11.7141 -0.196647 -79.8647
rradius 95.9536
rwrist -22.4303
rhand -13.0932 12.461
rfingers 7.12502
rthumb 13.0033 -17.1137
lclavicle -1.10822e-014 -1.35174e-014
lhumerus -8.66985 -9.37467 88.3151
lradius 59.6948
lwrist 14.5727
lhand -25.1601 11.6215
lfingers 7.12502
lthumb 1.35693 41.5969
rfemur -34.199 -7.36066 19.3902
rtibia 48.0789
rfoot -11.5599 -5.375
rtoes -11.2194
lfemur -44.7184 11.5804 -34.8289
ltibia 48.0851
lfoot -19.6437 -2.96476
ltoes -13.8695
456
root 1.64469 27.2964 -1.34151 -161.917 -9.21102 177.701
lowerback 10.714 -1.25532 -4.67157
upperback 0.516211 -2.29651 0.3014
thorax -5.27811 -1.04721 3.29437
lowerneck -18.7761 0.299082 -9.31885
upperneck 36.965 -0.921929 3.94802
head 16.4817 -2.1338 2.92395
rclavicle 2.17172e-014 -1.43125e-014
rhumerus -11.2732 0.274377 -80.1945
rradius 94.9529
rwrist -22.1894
rhand -12.6114 12.5426
rfingers 7.12502
rthumb 13.4678 -17.002
lclavicle 2.17172e-014 -1.43125e-014
lhumerus -8.82767 -8.94861 88.1447
lradius 59.0252
lwrist 14.3255
lhand -25.4621 11.0368
lfingers 7.12502
lthumb 1.06524 41.0139
rfemur -34.458 -7.37911 19.5975
rtibia 49.0816
rfoot -12.0165 -4.33461
rtoes -8.41795
lfemur -44.0175 11.6118 -34.5108
ltibia 47.0834
lfoot -19.0911 -2.84088
ltoes -13.5508
457
root 1.62073 27.3759 -1.35213 -162.03 -8.55023 177.931
lowerback 10.6079 -1.24423 -4.65892
upperback 0.588694 -2.27334 0.33737
thorax -5.14335 -1.04201 3.31608
lowerneck -19.0279 0.424117 -9.16941
upperneck 37.1037 -0.689599 3.72025
head 16.5928 -2.06066 2.84216
rclavicle -2.17669e-014 -1.07344e-014
rhumerus -10.8704 0.792337 -80.5337
rradius 94.0883
rwrist -21.9565
rhand -12.1661 12.5148
rfingers 7.12502
rthumb 13.897 -17.0009
lclavicle -2.17669e-014 -1.07344e-014
lhumerus -8.91651 -8.45383 88.0001
lradius 58.3285
lwrist 13.8581
lhand -25.8273 10.9242
lfingers 7.12502
lthumb 0.712582 40.9028
rfemur -34.7607 -7.27531 19.8052
rtibia 49.9878
rfoot -12.4868 -3.6867
rtoes -5.96924
lfemur -43.3496 11.6772 -34.1924
ltibia 46.0307
lfoot -18.5461 -2.58624
ltoes -13.3253
458
root 1.59841 27.4584 -1.36245 -162.047 -7.77258 178.086
lowerback 10.4865 -1.20465 -4.81314
upperback 0.59916 -2.22933 0.389252
thorax -5.06056 -1.01878 3.44646
lowerneck -19.2943 0.587262 -9.05437
upperneck 37.1993 -0.361515 3.48071
head 16.6784 -1.95068 2.77948
rclavicle 2.3556e-014 -1.51076e-014
rhumerus -10.617 1.37079 -80.8297
rradius 93.315
rwrist -21.766
rhand -11.8606 12.5073
rfingers 7.12502
rthumb 14.1913 -16.988
lclavicle 2.3556e-014 -1.51076e-014
lhumerus -9.03612 -7.91353 87.8742
lradius 57.6236
lwrist 13.4728
lhand -26.4186 11.0166
lfingers 7.12502
lthumb 0.141445 40.9963
rfemur -35.167 -7.01247 19.8947
rtibia 50.8114
rfoot -13.0174 -3.32957
rtoes -5.1957
lfemur -42.7683 11.8273 -34.0292
ltibia 44.9596
lfoot -17.9918 -2.38122
ltoes -13.1685
459
root 1.57813 27.5335 -1.37822 -162.173 -7.04558 178.262
lowerback 10.3582 -1.0515 -4.77307
upperback 0.588836 -2.02244 0.247269
thorax -5.02536 -0.920259 3.24181
lowerneck -19.0425 0.649328 -8.68938
upperneck 37.1938 -0.449167 3.40348
head 16.618 -1.95753 2.65883
rclavicle -3.8763e-015 1.39149e-015
rhumerus -10.6464 1.43536 -81.273
rradius 92.6053
rwrist -21.6496
rhand -11.5474 12.5367
rfingers 7.12502
rthumb 14.4931 -16.9371
lclavicle -3.8763e-015 1.39149e-015
lhumerus -9.26845 -7.98215 87.5982
lradius 56.9546
lwrist 13.1987
lhand -26.8985 10.9203
lfingers 7.12502
lthumb -0.322026 40.8998
rfemur -35.3616 -6.82377 20.0354
rtibia 51.5604
rfoot -13.7744 -2.96569
rtoes -6.86541
lfemur -42.087 12.0313 -33.8268
ltibia 43.9358
lfoot -17.4173 -2.14322
ltoes -13.6895
460
root 1.5574 27.6005 -1.39989 -162.377 -6.34093 178.566
lowerback 10.3273 -1.08411 -4.74045
upperback 0.624651 -2.05202 0.386554
thorax -4.9636 -0.936579 3.37185
lowerneck -19.1131 0.805502 -8.96248
upperneck 37.2964 -0.135882 3.39471
head 16.6609 -1.8889 2.76077
rclavicle -5.76476e-015 -2.10712e-014
rhumerus -10.3218 2.3182 -81.4698
rradius 91.792
rwrist -21.8028
rhand -11.1386 12.5059
rfingers 7.12502
rthumb 14.887 -16.9392
lclavicle -5.76476e-015 -2.10712e-014
lhumerus -9.48563 -7.14409 87.493
lradius 56.2548
lwrist 12.7394
lhand -27.4045 10.1141
lfingers 7.12502
lthumb -0.810734 40.0923
rfemur -35.3975 -6.68858 20.3374
rtibia 52.2308
rfoot -14.5803 -2.58217
rtoes -9.39486
lfemur -41.3403 12.2453 -33.4571
ltibia 42.9825
lfoot -16.8351 -1.67492
ltoes -14.4114
461
root 1.5417 27.6655 -1.41397 -162.502 -5.77156 178.867
lowerback 10.2483 -1.10492 -4.65123
upperback 0.648508 -2.06146 0.444485
thorax -4.89425 -0.945015 3.38035
lowerneck -19.1086 0.941171 -8.96289
upperneck 37.3494 0.062218 3.33261
head 16.6689 -1.83065 2.76829
rclavicle 3.67752e-015 -4.17448e-015
rhumerus -10.0103 2.93694 -81.6991
rradius 90.9645
rwrist -22.2419
rhand -10.9656 12.8672
rfingers 7.12502
rthumb 15.0536 -16.5655
lclavicle 3.67752e-015 -4.17448e-015
lhumerus -9.54899 -6.56241 87.2492
lradius 55.3875
lwrist 12.1543
lhand -27.7789 9.53226
lfingers 7.12502
lthumb -1.17235 39.5088
rfemur -35.5689 -6.47274 20.6241
rtibia 52.8242
rfoot -15.3592 -2.33651
rtoes -10.0607
lfemur -40.7411 12.3986 -33.103
ltibia 42.0962
lfoot -16.2452 -1.1741
ltoes -15.0852
462
root 1.52972 27.728 -1.4202 -162.613 -5.19856 179.089
lowerback 10.2569 -1.06915 -4.6006
upperback 0.634679 -2.01037 0.414931
thorax -4.92095 -0.920197 3.31444
lowerneck -18.9869 1.05419 -8.87048
upperneck 37.3324 0.142632 3.37908
head 16.6198 -1.78564 2.78427
rclavicle 1.27222e-014 5.96354e-016
rhumerus -9.80963 3.31706 -82.0332
rradius 90.1502
rwrist -22.557
rhand -10.7702 13.4807
rfingers 7.12502
rthumb 15.2419 -15.9378
lclavicle 1.27222e-014 5.96354e-016
lhumerus -9.66206 -6.22306 86.9394
lradius 54.6216
lwrist 11.4835
lhand -28.1696 9.23544
lfingers 7.12502
lthumb -1.54976 39.2096
rfemur -35.8188 -6.15702 20.7951
rtibia 53.3113
rfoot -16.0556 -2.21059
rtoes -9.68624
lfemur -40.2262 12.6096 -32.8816
ltibia 41.2462
lfoot -15.6454 -0.814463
ltoes -15.6839
463
root 1.51566 27.784 -1.42865 -162.713 -4.53817 179.127
lowerback 10.3005 -1.0637 -4.77428
upperback 0.669691 -2.02713 0.429975
thorax -4.90085 -0.927098 3.43129
lowerneck -19.191 1.12735 -9.00203
upperneck 37.3712 0.332356 3.36801
head 16.6735 -1.73243 2.84011
rclavicle -1.98785e-015 -1.23246e-014
rhumerus -9.44097 3.94071 -82.2935
rradius 89.3668
rwrist -22.7257
rhand -10.5407 13.6441
rfingers 7.12502
rthumb 15.4629 -15.7574
lclavicle -1.98785e-015 -1.23246e-014
lhumerus -9.70881 -5.63152 86.6872
lradius 53.9533
lwrist 10.4342
lhand -28.1567 9.42444
lfingers 7.12502
lthumb -1.53722 39.3987
rfemur -36.0541 -5.88895 20.7494
rtibia 53.6844
rfoot -16.7131 -1.92181
rtoes -9.94133
lfemur -39.6453 12.702 -32.8219
ltibia 40.3997
lfoot -15.0951 -0.413483
ltoes -16.1523
464
root 1.49908 27.8362 -1.44205 -162.758 -4.08592 179.218
lowerback 10.2946 -1.14165 -4.8224
upperback 0.617282 -2.13153 0.48686
thorax -4.93904 -0.973673 3.53324
lowerneck -19.1984 -2.45321 -7.71549
upperneck 37.5228 2.26319 1.58904
head 16.8041 1.07365 2.82737
rclavicle -1.92821e-014 -1.43125e-014
rhumerus -9.27353 4.64746 -82.4908
rradius 88.7286
rwrist -22.9139
rhand -10.3741 13.2377
rfingers 7.12502
rthumb 15.6234 -16.1514
lclavicle -1.92821e-014 -1.43125e-014
lhumerus -9.94372 -4.9256 86.4489
lradius 53.3743
lwrist 9.06339
lhand -27.8926 9.89213
lfingers 7.12502
lthumb -1.28221 39.868
rfemur -36.2699 -5.77477 20.8024
rtibia 53.9195
rfoot -17.383 -1.57655
rtoes -10.5447
lfemur -39.0854 12.6188 -32.6575
ltibia 39.549
lfoot -14.6019 -0.110408
ltoes -16.7994
465
root 1.48496 27.8933 -1.4574 -162.856 -3.7794 179.426
lowerback 10.2976 -1.18021 -4.68543
upperback 0.58509 -2.16422 0.515446
thorax -4.97513 -0.990005 3.49126
lowerneck -19.0552 -2.4153 -7.57856
upperneck 37.5031 2.30733 1.45729
head 16.7585 1.0956 2.74974
rclavicle -2.98177e-015 1.98785e-015
rhumerus -9.09768 5.0972 -82.6831
rradius 87.9894
rwrist -23.0768
rhand -10.3713 13.0037
rfingers 7.12502
rthumb 15.626 -16.3852
lclavicle -2.98177e-015 1.98785e-015
lhumerus -10.2015 -4.65717 86.1667
lradius 52.8075
lwrist 8.05499
lhand -28.1139 9.62482
lfingers 7.12502
lthumb -1.4959 39.5993
rfemur -36.3567 -5.65191 20.9811
rtibia 53.9925
rfoot -18.0794 -1.15733
rtoes -10.6963
lfemur -38.5106 12.6105 -32.3554
ltibia 38.7249
lfoot -14.1205 0.0329956
ltoes -17.0108
466
root 1.46759 27.9446 -1.48087 -163.114 -3.34171 179.521
lowerback 10.2789 -1.17559 -4.50456
upperback 0.686898 -2.14682 0.390077
thorax -4.87065 -0.994222 3.25266
lowerneck -19.0197 -2.39381 -7.50383
upperneck 37.5047 2.28348 1.48597
head 16.75 1.09811 2.74333
rclavicle 6.95746e-015 1.82882e-014
rhumerus -8.85624 5.4236 -83.0471
rradius 87.1931
rwrist -23.1813
rhand -10.5294 13.156
rfingers 7.12502
rthumb 15.4738 -16.2447
lclavicle 6.95746e-015 1.82882e-014
lhumerus -10.3244 -4.60801 85.7592
lradius 52.1858
lwrist 7.33624
lhand -28.3578 9.16583
lfingers 7.12502
lthumb -1.73144 39.1385
rfemur -36.2168 -5.47938 20.9613
rtibia 53.8957
rfoot -18.6674 -0.562339
rtoes -10.9829
lfemur -37.7455 12.7239 -32.1783
ltibia 37.9974
lfoot -13.6972 0.276404
ltoes -17.3685
467
root 1.44607 27.9892 -1.50844 -163.418 -2.6087 179.7
lowerback 10.271 -1.00753 -4.49631
upperback 0.758827 -1.92364 0.405807
thorax -4.80999 -0.888786 3.23243
lowerneck -18.943 -2.40641 -7.51099
upperneck 37.5716 2.3179 1.40805
head 16.7676 1.10451 2.71942
rclavicle -1.68967e-014 -1.74931e-014
rhumerus -8.73812 5.73156 -83.2307
rradius 86.4549
rwrist -23.1762
rhand -10.6168 13.375
rfingers 7.12502
rthumb 15.3896 -16.0322
lclavicle -1.68967e-014 -1.74931e-014
lhumerus -10.4351 -4.45125 85.6915
lradius 51.4556
lwrist 6.37983
lhand -28.6756 8.96838
lfingers 7.12502
lthumb -2.03838 38.9384
rfemur -35.9925 -5.07375 20.92
rtibia 53.6514
rfoot -19.1256 0.311601
rtoes -10.6085
lfemur -37.0039 12.9326 -31.9639
ltibia 37.3947
lfoot -13.2997 0.789767
ltoes -17.9098
468
root 1.43218 28.0357 -1.52363 -163.859 -1.54346 180.118
lowerback 10.5393 -0.780591 -4.50904
upperback 0.942215 -1.63883 0.543042
thorax -4.78808 -0.756081 3.3495
lowerneck -19.2294 -2.33675 -7.62585
upperneck 37.6161 2.51727 1.29624
head 16.8545 1.13781 2.73177
rclavicle 1.30204e-014 -9.14409e-015
rhumerus -8.39994 6.3639 -83.3938
rradius 85.7849
rwrist -23.1784
rhand -10.8523 13.5127
rfingers 7.12502
rthumb 15.1628 -15.9118
lclavicle 1.30204e-014 -9.14409e-015
lhumerus -10.4336 -3.87514 85.6036
lradius 50.9296
lwrist 5.41128
lhand -29.358 8.77464
lfingers 7.12502
lthumb -2.69743 38.7373
rfemur -35.6768 -4.26007 21.0601
rtibia 53.3042
rfoot -19.7017 1.3581
rtoes -10.9518
lfemur -36.2041 13.377 -31.4694
ltibia 36.949
lfoot -13.0812 1.32873
ltoes -17.4193
